# xmcd CD database file
#
# Track frame offsets:
#	150
#	19370
#	38793
#	56397
#	71361
#	91633
#	111538
#	124621
#	141850
#	155752
#	172570
#
# Disc length: 2585 seconds
#
# Revision: 3
# Processed by: cddbd v1.5PL3 Copyright (c) Steve Scherf et al.
# Submitted via: CDex 1.51
#
DISCID=890a170b
DTITLE=Lazy Susan - Never Better
DYEAR=2004
DGENRE=Indie
TTITLE0=Sometimes
TTITLE1=Top of Her Goodbye
TTITLE2=Holding On
TTITLE3=Rosie
TTITLE4=Wrong
TTITLE5=Never Better
TTITLE6=I Will
TTITLE7=Misunderstood
TTITLE8=Looking Backwards
TTITLE9=Wasting Time
TTITLE10=Why Don't We Just Call it a Night?
EXTD=YEAR: 2004
EXTT0=
EXTT1=
EXTT2=
EXTT3=
EXTT4=
EXTT5=
EXTT6=
EXTT7=
EXTT8=
EXTT9=
EXTT10=
PLAYORDER=
